M48
; DRILL file {KiCad 7.0.5} date Sat Aug 26 18:44:20 2023
; FORMAT={-:-/ absolute / inch / decimal}
; #@! TF.CreationDate,2023-08-26T18:44:20+09:00
; #@! TF.GenerationSoftware,Kicad,Pcbnew,7.0.5
; #@! TF.FileFunction,Plated,1,2,PTH
FMAT,2
INCH
; #@! TA.AperFunction,Plated,PTH,ViaDrill
T1C0.0157
; #@! TA.AperFunction,Plated,PTH,ComponentDrill
T2C0.0197
; #@! TA.AperFunction,Plated,PTH,ComponentDrill
T3C0.0315
; #@! TA.AperFunction,Plated,PTH,ComponentDrill
T4C0.0374
; #@! TA.AperFunction,Plated,PTH,ComponentDrill
T5C0.0394
; #@! TA.AperFunction,Plated,PTH,ComponentDrill
T6C0.0402
; #@! TA.AperFunction,Plated,PTH,ComponentDrill
T7C0.1260
%
G90
G05
T1
X4.925Y-3.925
X6.075Y-4.025
X6.125Y-3.975
T2
X4.2805Y-2.575
X4.2805Y-4.725
X4.3082Y-2.5082
X4.3082Y-2.6418
X4.3082Y-4.6582
X4.3082Y-4.7918
X4.375Y-2.4805
X4.375Y-2.6695
X4.375Y-4.6305
X4.375Y-4.8195
X4.4418Y-2.5082
X4.4418Y-2.6418
X4.4418Y-4.6582
X4.4418Y-4.7918
X4.4695Y-2.575
X4.4695Y-4.725
X7.5805Y-2.575
X7.5805Y-4.725
X7.6082Y-2.5082
X7.6082Y-2.6418
X7.6082Y-4.6582
X7.6082Y-4.7918
X7.675Y-2.4805
X7.675Y-2.6695
X7.675Y-4.6305
X7.675Y-4.8195
X7.7418Y-2.5082
X7.7418Y-2.6418
X7.7418Y-4.6582
X7.7418Y-4.7918
X7.7695Y-2.575
X7.7695Y-4.725
T3
X5.15Y-3.975
X5.15Y-4.275
X5.4754Y-3.9746
X5.4754Y-4.2746
X5.5754Y-3.9746
X5.5754Y-4.2746
X5.6754Y-3.9746
X5.6754Y-4.2746
X5.7754Y-3.9746
X5.7754Y-4.2746
T4
X4.9266Y-4.475
X5.025Y-4.475
X5.1234Y-4.475
X5.375Y-4.475
X5.4734Y-4.475
X5.5719Y-4.475
X5.8281Y-4.475
X5.9266Y-4.475
X6.025Y-4.475
X6.4297Y-4.475
X6.5281Y-4.475
X6.6266Y-4.475
X6.725Y-4.475
X6.9797Y-4.475
X7.0781Y-4.475
X7.1766Y-4.475
X7.275Y-4.475
X7.425Y-3.3547
X7.425Y-3.4531
X7.425Y-3.5516
X7.425Y-3.65
T5
X4.6358Y-3.0287
X4.6358Y-3.1272
X4.6358Y-3.3758
X4.6358Y-3.4742
X4.6358Y-3.85
X4.6358Y-3.9484
X4.6358Y-4.2
X4.6358Y-4.2984
X5.6795Y-2.825
X5.778Y-2.825
X6.0516Y-2.825
X6.15Y-2.825
X6.4059Y-2.825
X6.5043Y-2.825
T6
X5.15Y-3.2
X5.15Y-3.8
X5.25Y-3.2
X5.25Y-3.8
X5.35Y-3.2
X5.35Y-3.8
X5.45Y-3.2
X5.45Y-3.8
X5.55Y-3.2
X5.55Y-3.8
X5.65Y-3.2
X5.65Y-3.8
X5.75Y-3.2
X5.75Y-3.8
X5.85Y-3.2
X5.85Y-3.8
X5.95Y-3.2
X5.95Y-3.8
X6.05Y-3.2
X6.05Y-3.8
X6.15Y-3.2
X6.15Y-3.8
X6.25Y-3.2
X6.25Y-3.8
X6.35Y-3.2
X6.35Y-3.8
X6.45Y-3.2
X6.45Y-3.8
X6.55Y-3.2
X6.55Y-3.8
T7
X4.375Y-2.575
X4.375Y-4.725
X7.675Y-2.575
X7.675Y-4.725
T0
M30
