%TF.GenerationSoftware,KiCad,Pcbnew,7.0.5*%
%TF.CreationDate,2023-08-26T18:44:16+09:00*%
%TF.ProjectId,Motherbord_Slave,4d6f7468-6572-4626-9f72-645f536c6176,rev?*%
%TF.SameCoordinates,Original*%
%TF.FileFunction,Copper,L2,Bot*%
%TF.FilePolarity,Positive*%
%FSLAX46Y46*%
G04 Gerber Fmt 4.6, Leading zero omitted, Abs format (unit mm)*
G04 Created by KiCad (PCBNEW 7.0.5) date 2023-08-26 18:44:16*
%MOMM*%
%LPD*%
G01*
G04 APERTURE LIST*
G04 Aperture macros list*
%AMRoundRect*
0 Rectangle with rounded corners*
0 $1 Rounding radius*
0 $2 $3 $4 $5 $6 $7 $8 $9 X,Y pos of 4 corners*
0 Add a 4 corners polygon primitive as box body*
4,1,4,$2,$3,$4,$5,$6,$7,$8,$9,$2,$3,0*
0 Add four circle primitives for the rounded corners*
1,1,$1+$1,$2,$3*
1,1,$1+$1,$4,$5*
1,1,$1+$1,$6,$7*
1,1,$1+$1,$8,$9*
0 Add four rect primitives between the rounded corners*
20,1,$1+$1,$2,$3,$4,$5,0*
20,1,$1+$1,$4,$5,$6,$7,0*
20,1,$1+$1,$6,$7,$8,$9,0*
20,1,$1+$1,$8,$9,$2,$3,0*%
G04 Aperture macros list end*
%TA.AperFunction,ComponentPad*%
%ADD10R,1.530000X1.530000*%
%TD*%
%TA.AperFunction,ComponentPad*%
%ADD11C,1.530000*%
%TD*%
%TA.AperFunction,ComponentPad*%
%ADD12C,0.800000*%
%TD*%
%TA.AperFunction,ComponentPad*%
%ADD13C,6.400000*%
%TD*%
%TA.AperFunction,ComponentPad*%
%ADD14RoundRect,0.250000X-0.750000X0.600000X-0.750000X-0.600000X0.750000X-0.600000X0.750000X0.600000X0*%
%TD*%
%TA.AperFunction,ComponentPad*%
%ADD15O,2.000000X1.700000*%
%TD*%
%TA.AperFunction,ComponentPad*%
%ADD16RoundRect,0.250000X-0.600000X-0.725000X0.600000X-0.725000X0.600000X0.725000X-0.600000X0.725000X0*%
%TD*%
%TA.AperFunction,ComponentPad*%
%ADD17O,1.700000X1.950000*%
%TD*%
%TA.AperFunction,ComponentPad*%
%ADD18R,1.600000X1.600000*%
%TD*%
%TA.AperFunction,ComponentPad*%
%ADD19O,1.600000X1.600000*%
%TD*%
%TA.AperFunction,ComponentPad*%
%ADD20RoundRect,0.250000X0.600000X0.750000X-0.600000X0.750000X-0.600000X-0.750000X0.600000X-0.750000X0*%
%TD*%
%TA.AperFunction,ComponentPad*%
%ADD21O,1.700000X2.000000*%
%TD*%
%TA.AperFunction,ComponentPad*%
%ADD22C,1.600000*%
%TD*%
%TA.AperFunction,ComponentPad*%
%ADD23RoundRect,0.250000X0.725000X-0.600000X0.725000X0.600000X-0.725000X0.600000X-0.725000X-0.600000X0*%
%TD*%
%TA.AperFunction,ComponentPad*%
%ADD24O,1.950000X1.700000*%
%TD*%
%TA.AperFunction,ViaPad*%
%ADD25C,0.800000*%
%TD*%
%TA.AperFunction,Conductor*%
%ADD26C,0.300000*%
%TD*%
%TA.AperFunction,Conductor*%
%ADD27C,1.000000*%
%TD*%
G04 APERTURE END LIST*
D10*
%TO.P,U1,1,D1/TX*%
%TO.N,PWM_1*%
X130810000Y-96520000D03*
D11*
%TO.P,U1,2,D0/RX*%
%TO.N,PWM_2*%
X133350000Y-96520000D03*
%TO.P,U1,3,RST*%
%TO.N,unconnected-(U1-RST-Pad3)*%
X135890000Y-96520000D03*
%TO.P,U1,4,GND*%
%TO.N,unconnected-(U1-GND-Pad4)*%
X138430000Y-96520000D03*
%TO.P,U1,5,D2*%
%TO.N,CAN_td*%
X140970000Y-96520000D03*
%TO.P,U1,6,D3*%
%TO.N,Dir_1*%
X143510000Y-96520000D03*
%TO.P,U1,7,D4*%
%TO.N,Dir_2*%
X146050000Y-96520000D03*
%TO.P,U1,8,D5*%
%TO.N,enc_1_a*%
X148590000Y-96520000D03*
%TO.P,U1,9,D6*%
%TO.N,enc_1_b*%
X151130000Y-96520000D03*
%TO.P,U1,10,D7*%
%TO.N,unconnected-(U1-D7-Pad10)*%
X153670000Y-96520000D03*
%TO.P,U1,11,D8*%
%TO.N,unconnected-(U1-D8-Pad11)*%
X156210000Y-96520000D03*
%TO.P,U1,12,D9*%
%TO.N,PWM_3*%
X158750000Y-96520000D03*
%TO.P,U1,13,D10*%
%TO.N,CAN_rd*%
X161290000Y-96520000D03*
%TO.P,U1,14,D11*%
%TO.N,enc_2_b*%
X163830000Y-96520000D03*
%TO.P,U1,15,D12*%
%TO.N,Dir_3*%
X166370000Y-96520000D03*
%TO.P,U1,16,D13*%
%TO.N,unconnected-(U1-D13-Pad16)*%
X166370000Y-81280000D03*
%TO.P,U1,17,3v3*%
%TO.N,unconnected-(U1-3v3-Pad17)*%
X163830000Y-81280000D03*
%TO.P,U1,18,REF*%
%TO.N,unconnected-(U1-REF-Pad18)*%
X161290000Y-81280000D03*
%TO.P,U1,19,A0*%
%TO.N,enc_2_a*%
X158750000Y-81280000D03*
%TO.P,U1,20,A1*%
%TO.N,LED_B*%
X156210000Y-81280000D03*
%TO.P,U1,21,A2*%
%TO.N,LED_G*%
X153670000Y-81280000D03*
%TO.P,U1,22,A3*%
%TO.N,LIM_SW5*%
X151130000Y-81280000D03*
%TO.P,U1,23,A4*%
%TO.N,LIM_SW4*%
X148590000Y-81280000D03*
%TO.P,U1,24,A5*%
%TO.N,LED_R*%
X146050000Y-81280000D03*
%TO.P,U1,25,A6*%
%TO.N,LIM_SW3*%
X143510000Y-81280000D03*
%TO.P,U1,26,A7*%
%TO.N,unconnected-(U1-A7-Pad26)*%
X140970000Y-81280000D03*
%TO.P,U1,27,5V*%
%TO.N,+5V*%
X138430000Y-81280000D03*
%TO.P,U1,28,RST*%
%TO.N,unconnected-(U1-RST-Pad28)*%
X135890000Y-81280000D03*
%TO.P,U1,29,GND*%
%TO.N,GND*%
X133350000Y-81280000D03*
D10*
%TO.P,U1,30,VIN*%
%TO.N,unconnected-(U1-VIN-Pad30)*%
X130810000Y-81280000D03*
%TD*%
D12*
%TO.P,H3,1*%
%TO.N,N/C*%
X108725000Y-65405000D03*
X109427944Y-63707944D03*
X109427944Y-67102056D03*
X111125000Y-63005000D03*
D13*
X111125000Y-65405000D03*
D12*
X111125000Y-67805000D03*
X112822056Y-63707944D03*
X112822056Y-67102056D03*
X113525000Y-65405000D03*
%TD*%
D14*
%TO.P,J1,1,Pin_1*%
%TO.N,Net-(J1-Pin_1)*%
X117750000Y-97790000D03*
D15*
%TO.P,J1,2,Pin_2*%
%TO.N,Net-(J1-Pin_2)*%
X117750000Y-100290000D03*
%TD*%
D16*
%TO.P,J3,1,Pin_1*%
%TO.N,enc_2_a*%
X177285000Y-113665000D03*
D17*
%TO.P,J3,2,Pin_2*%
%TO.N,+5V*%
X179785000Y-113665000D03*
%TO.P,J3,3,Pin_3*%
%TO.N,enc_2_b*%
X182285000Y-113665000D03*
%TO.P,J3,4,Pin_4*%
%TO.N,GND*%
X184785000Y-113665000D03*
%TD*%
D14*
%TO.P,J17,1,Pin_1*%
%TO.N,+5V*%
X117750000Y-85745000D03*
D15*
%TO.P,J17,2,Pin_2*%
%TO.N,GND*%
X117750000Y-88245000D03*
%TD*%
D16*
%TO.P,J6,1,Pin_1*%
%TO.N,Dir_2*%
X136525000Y-113665000D03*
D17*
%TO.P,J6,2,Pin_2*%
%TO.N,PWM_2*%
X139025000Y-113665000D03*
%TO.P,J6,3,Pin_3*%
%TO.N,GND*%
X141525000Y-113665000D03*
%TD*%
D18*
%TO.P,U2,1,TXD*%
%TO.N,CAN_td*%
X139075000Y-108575000D03*
D19*
%TO.P,U2,2,VSS*%
%TO.N,GND*%
X141615000Y-108575000D03*
%TO.P,U2,3,VDD*%
%TO.N,+5V*%
X144155000Y-108575000D03*
%TO.P,U2,4,RXD*%
%TO.N,CAN_rd*%
X146695000Y-108575000D03*
%TO.P,U2,5,SPLIT*%
%TO.N,unconnected-(U2-SPLIT-Pad5)*%
X146695000Y-100955000D03*
%TO.P,U2,6,CANL*%
%TO.N,Net-(J1-Pin_2)*%
X144155000Y-100955000D03*
%TO.P,U2,7,CANH*%
%TO.N,Net-(J1-Pin_1)*%
X141615000Y-100955000D03*
%TO.P,U2,8,STBY*%
%TO.N,GND*%
X139075000Y-100955000D03*
%TD*%
D14*
%TO.P,J16,1,Pin_1*%
%TO.N,+5V*%
X117750000Y-76930000D03*
D15*
%TO.P,J16,2,Pin_2*%
%TO.N,GND*%
X117750000Y-79430000D03*
%TD*%
D16*
%TO.P,J5,1,Pin_1*%
%TO.N,Dir_1*%
X125135000Y-113665000D03*
D17*
%TO.P,J5,2,Pin_2*%
%TO.N,PWM_1*%
X127635000Y-113665000D03*
%TO.P,J5,3,Pin_3*%
%TO.N,GND*%
X130135000Y-113665000D03*
%TD*%
D20*
%TO.P,J12,1,Pin_1*%
%TO.N,+5V*%
X156210000Y-71755000D03*
D21*
%TO.P,J12,2,Pin_2*%
%TO.N,LIM_SW4*%
X153710000Y-71755000D03*
%TD*%
D12*
%TO.P,H1,1*%
%TO.N,N/C*%
X192545000Y-65405000D03*
X193247944Y-63707944D03*
X193247944Y-67102056D03*
X194945000Y-63005000D03*
D13*
X194945000Y-65405000D03*
D12*
X194945000Y-67805000D03*
X196642056Y-63707944D03*
X196642056Y-67102056D03*
X197345000Y-65405000D03*
%TD*%
%TO.P,H4,1*%
%TO.N,N/C*%
X108725000Y-120015000D03*
X109427944Y-118317944D03*
X109427944Y-121712056D03*
X111125000Y-117615000D03*
D13*
X111125000Y-120015000D03*
D12*
X111125000Y-122415000D03*
X112822056Y-118317944D03*
X112822056Y-121712056D03*
X113525000Y-120015000D03*
%TD*%
D20*
%TO.P,J13,1,Pin_1*%
%TO.N,+5V*%
X165210000Y-71755000D03*
D21*
%TO.P,J13,2,Pin_2*%
%TO.N,LIM_SW5*%
X162710000Y-71755000D03*
%TD*%
D22*
%TO.P,R1,1*%
%TO.N,Net-(J1-Pin_1)*%
X130810000Y-100965000D03*
D19*
%TO.P,R1,2*%
%TO.N,Net-(J1-Pin_2)*%
X130810000Y-108585000D03*
%TD*%
D23*
%TO.P,J8,1,Pin_1*%
%TO.N,Net-(D1-K)*%
X188595000Y-92710000D03*
D24*
%TO.P,J8,2,Pin_2*%
%TO.N,Net-(D2-K)*%
X188595000Y-90210000D03*
%TO.P,J8,3,Pin_3*%
%TO.N,Net-(D3-K)*%
X188595000Y-87710000D03*
%TO.P,J8,4,Pin_4*%
%TO.N,GND*%
X188595000Y-85210000D03*
%TD*%
D12*
%TO.P,H2,1*%
%TO.N,N/C*%
X192545000Y-120015000D03*
X193247944Y-118317944D03*
X193247944Y-121712056D03*
X194945000Y-117615000D03*
D13*
X194945000Y-120015000D03*
D12*
X194945000Y-122415000D03*
X196642056Y-118317944D03*
X196642056Y-121712056D03*
X197345000Y-120015000D03*
%TD*%
D16*
%TO.P,J4,1,Pin_1*%
%TO.N,enc_1_a*%
X163315000Y-113665000D03*
D17*
%TO.P,J4,2,Pin_2*%
%TO.N,+5V*%
X165815000Y-113665000D03*
%TO.P,J4,3,Pin_3*%
%TO.N,enc_1_b*%
X168315000Y-113665000D03*
%TO.P,J4,4,Pin_4*%
%TO.N,GND*%
X170815000Y-113665000D03*
%TD*%
D20*
%TO.P,J11,1,Pin_1*%
%TO.N,+5V*%
X146760000Y-71755000D03*
D21*
%TO.P,J11,2,Pin_2*%
%TO.N,LIM_SW3*%
X144260000Y-71755000D03*
%TD*%
D16*
%TO.P,J7,1,Pin_1*%
%TO.N,Dir_3*%
X148035000Y-113665000D03*
D17*
%TO.P,J7,2,Pin_2*%
%TO.N,PWM_3*%
X150535000Y-113665000D03*
%TO.P,J7,3,Pin_3*%
%TO.N,GND*%
X153035000Y-113665000D03*
%TD*%
D14*
%TO.P,J2,1,Pin_1*%
%TO.N,Net-(J1-Pin_1)*%
X117750000Y-106680000D03*
D15*
%TO.P,J2,2,Pin_2*%
%TO.N,Net-(J1-Pin_2)*%
X117750000Y-109180000D03*
%TD*%
D25*
%TO.N,Dir_1*%
X125095000Y-99695000D03*
%TO.N,enc_1_a*%
X154305000Y-102235000D03*
%TO.N,enc_1_b*%
X155575000Y-100965000D03*
%TD*%
D26*
%TO.N,enc_1_a*%
X163195000Y-111125000D02*
X163195000Y-113545000D01*
X163195000Y-113545000D02*
X163315000Y-113665000D01*
X154305000Y-102235000D02*
X163195000Y-111125000D01*
%TO.N,Dir_3*%
X161925000Y-92710000D02*
X166370000Y-97155000D01*
X155575000Y-92710000D02*
X161925000Y-92710000D01*
X152400000Y-95885000D02*
X155575000Y-92710000D01*
X152400000Y-103079339D02*
X152400000Y-95885000D01*
X147955000Y-107524339D02*
X152400000Y-103079339D01*
X147955000Y-113665000D02*
X147955000Y-107524339D01*
%TO.N,PWM_1*%
X127635000Y-97790000D02*
X127635000Y-112340000D01*
X130810000Y-96520000D02*
X128905000Y-96520000D01*
X128905000Y-96520000D02*
X127635000Y-97790000D01*
X127635000Y-111442500D02*
X127635000Y-113347500D01*
%TO.N,PWM_2*%
X135255000Y-108585000D02*
X137795000Y-111125000D01*
X139065000Y-112395000D02*
X139065000Y-113030000D01*
X133350000Y-96520000D02*
X135255000Y-98425000D01*
X138430000Y-111125000D02*
X139065000Y-111760000D01*
X139065000Y-111760000D02*
X139065000Y-112395000D01*
X137795000Y-111125000D02*
X138430000Y-111125000D01*
X135255000Y-98425000D02*
X135255000Y-108585000D01*
%TO.N,Dir_1*%
X125095000Y-99695000D02*
X125095000Y-112340000D01*
X125095000Y-112395000D02*
X125095000Y-113030000D01*
%TO.N,enc_1_b*%
X155575000Y-100965000D02*
X163830000Y-109220000D01*
X163830000Y-109220000D02*
X167005000Y-109220000D01*
X168275000Y-111760000D02*
X168275000Y-113030000D01*
X167005000Y-109220000D02*
X168275000Y-110490000D01*
X168275000Y-110490000D02*
X168275000Y-112340000D01*
%TO.N,enc_2_b*%
X182245000Y-109220000D02*
X182245000Y-112340000D01*
X163830000Y-100965000D02*
X167640000Y-104775000D01*
X167640000Y-104775000D02*
X177800000Y-104775000D01*
X177800000Y-104775000D02*
X182245000Y-109220000D01*
X163830000Y-96520000D02*
X163830000Y-100965000D01*
X182245000Y-111760000D02*
X182245000Y-113030000D01*
%TO.N,+5V*%
X144155000Y-106055000D02*
X144155000Y-107425000D01*
X140335000Y-99695000D02*
X140335000Y-102235000D01*
X140335000Y-102235000D02*
X144155000Y-106055000D01*
X138430000Y-81280000D02*
X138430000Y-93980000D01*
X144145000Y-106680000D02*
X144145000Y-108585000D01*
X138430000Y-93980000D02*
X139700000Y-95250000D01*
X139700000Y-99060000D02*
X140335000Y-99695000D01*
X139700000Y-95250000D02*
X139700000Y-99060000D01*
D27*
%TO.N,GND*%
X119435000Y-79430000D02*
X120650000Y-80645000D01*
X117750000Y-79430000D02*
X119435000Y-79430000D01*
X128905000Y-116205000D02*
X128270000Y-116205000D01*
X134180000Y-79815000D02*
X133350000Y-79815000D01*
X132080000Y-79375000D02*
X132631589Y-79926589D01*
D26*
X137795000Y-100330000D02*
X138430000Y-100965000D01*
D27*
X152995000Y-113665000D02*
X152995000Y-114935000D01*
X141525000Y-114935000D02*
X141605000Y-114935000D01*
X170815000Y-116205000D02*
X172085000Y-116205000D01*
X170815000Y-114935000D02*
X170815000Y-116205000D01*
X131445000Y-116205000D02*
X140335000Y-116205000D01*
X141605000Y-114935000D02*
X142875000Y-116205000D01*
D26*
X137160000Y-99695000D02*
X137795000Y-100330000D01*
D27*
X130095000Y-113665000D02*
X130095000Y-114935000D01*
X170815000Y-113665000D02*
X170815000Y-114935000D01*
X185540000Y-85210000D02*
X179705000Y-79375000D01*
X141525000Y-115015000D02*
X140335000Y-116205000D01*
X139075000Y-100955000D02*
X139075000Y-103515000D01*
X120650000Y-87045000D02*
X119450000Y-88245000D01*
X113030000Y-90170000D02*
X113030000Y-111760000D01*
X119450000Y-88245000D02*
X117750000Y-88245000D01*
X152995000Y-114935000D02*
X152995000Y-116165000D01*
X128270000Y-116205000D02*
X130175000Y-116205000D01*
X130095000Y-114935000D02*
X130175000Y-114935000D01*
X195580000Y-106680000D02*
X197485000Y-104775000D01*
X117475000Y-116205000D02*
X128270000Y-116205000D01*
X170815000Y-114935000D02*
X169545000Y-116205000D01*
X154305000Y-116205000D02*
X168910000Y-116205000D01*
X188595000Y-85210000D02*
X185540000Y-85210000D01*
X139075000Y-103515000D02*
X141615000Y-106055000D01*
X141615000Y-106055000D02*
X141615000Y-108575000D01*
D26*
X133350000Y-90805000D02*
X137160000Y-94615000D01*
X137160000Y-94615000D02*
X137160000Y-99695000D01*
D27*
X140335000Y-116205000D02*
X141605000Y-116205000D01*
D26*
X133350000Y-82550000D02*
X133350000Y-81915000D01*
D27*
X130175000Y-114935000D02*
X131445000Y-116205000D01*
X120650000Y-80645000D02*
X120650000Y-87045000D01*
X195065000Y-85210000D02*
X188595000Y-85210000D01*
X141605000Y-116205000D02*
X142875000Y-116205000D01*
X152995000Y-114935000D02*
X153035000Y-114935000D01*
X114955000Y-88245000D02*
X113030000Y-90170000D01*
X141525000Y-113665000D02*
X141525000Y-114935000D01*
X183515000Y-116205000D02*
X184725000Y-114995000D01*
X169545000Y-116205000D02*
X168910000Y-116205000D01*
X142875000Y-116205000D02*
X151765000Y-116205000D01*
X130175000Y-116205000D02*
X131445000Y-116205000D01*
X179705000Y-79375000D02*
X134620000Y-79375000D01*
X122555000Y-80645000D02*
X123825000Y-79375000D01*
X134620000Y-79375000D02*
X134180000Y-79815000D01*
X151765000Y-116205000D02*
X153035000Y-116205000D01*
X172085000Y-116205000D02*
X183515000Y-116205000D01*
X197485000Y-104775000D02*
X197485000Y-87630000D01*
X130175000Y-114935000D02*
X128905000Y-116205000D01*
X113030000Y-111760000D02*
X117475000Y-116205000D01*
X120650000Y-80645000D02*
X122555000Y-80645000D01*
X132080000Y-79375000D02*
X133350000Y-80645000D01*
X189230000Y-106680000D02*
X195580000Y-106680000D01*
X153035000Y-116205000D02*
X154305000Y-116205000D01*
X170815000Y-114935000D02*
X172085000Y-116205000D01*
X141525000Y-114935000D02*
X141525000Y-116125000D01*
X133350000Y-80645000D02*
X133350000Y-81280000D01*
X153035000Y-114935000D02*
X154305000Y-116205000D01*
X168910000Y-116205000D02*
X170815000Y-116205000D01*
X152995000Y-114935000D02*
X152995000Y-114975000D01*
X130095000Y-116125000D02*
X130175000Y-116205000D01*
X123825000Y-79375000D02*
X130810000Y-79375000D01*
X184725000Y-113665000D02*
X184725000Y-111185000D01*
X184725000Y-111185000D02*
X189230000Y-106680000D01*
X130095000Y-114935000D02*
X130095000Y-116125000D01*
D26*
X133350000Y-82550000D02*
X133350000Y-90805000D01*
D27*
X141525000Y-114935000D02*
X141525000Y-115015000D01*
X197485000Y-87630000D02*
X195065000Y-85210000D01*
X152995000Y-114975000D02*
X151765000Y-116205000D01*
X134620000Y-79375000D02*
X133350000Y-79375000D01*
X141525000Y-116125000D02*
X141605000Y-116205000D01*
X130810000Y-79375000D02*
X132080000Y-79375000D01*
X117750000Y-88245000D02*
X114955000Y-88245000D01*
X152995000Y-116165000D02*
X153035000Y-116205000D01*
X184725000Y-114995000D02*
X184725000Y-113665000D01*
X133350000Y-79375000D02*
X133350000Y-79815000D01*
X133350000Y-79375000D02*
X130810000Y-79375000D01*
X134302500Y-79692500D02*
X133350000Y-80645000D01*
%TD*%
M02*
